<svg width="24" height="24" viewBox="0 0 24 24" fill="none" xmlns="http://www.w3.org/2000/svg">
  <path fill-rule="evenodd" clip-rule="evenodd" 
    d="M12 2.5C7.5 2.5 4.5 6 4.5 10.5C4.5 13.5 3 14.5 2.5 15C2.5 17.5 5 18 5.5 18C6.5 18 6.5 19.5 7.5 20.5C8.5 21.5 9.5 20 10 19.5C10.5 19 11.5 19.5 12 20.5C12.5 21.5 13.5 22 14.5 21.5C15.5 21 15.5 19.5 16 19C16.5 18.5 17 18.5 18 19C19 19.5 21 18.5 21.5 16C21.5 16 20 14.5 19.5 11C19.03 7.73 16.5 2.5 12 2.5ZM9 11C9.82843 11 10.5 10.3284 10.5 9.5C10.5 8.67157 9.82843 8 9 8C8.17157 8 7.5 8.67157 7.5 9.5C7.5 10.3284 8.17157 11 9 11ZM16.5 9.5C16.5 10.3284 15.8284 11 15 11C14.1716 11 13.5 10.3284 13.5 9.5C13.5 8.67157 14.1716 8 15 8C15.8284 8 16.5 8.67157 16.5 9.5Z" 
    fill="currentColor"/>
</svg>