<svg width="24" height="24" viewBox="0 0 24 24" fill="none" xmlns="http://www.w3.org/2000/svg">
  <!-- The Body -->
  <path d="M12 2.5C7.5 2.5 4.5 6 4.5 10.5C4.5 13.5 3 14.5 2.5 15C2.5 17.5 5 18 5.5 18C6.5 18 6.5 19.5 7.5 20.5C8.5 21.5 9.5 20 10 19.5C10.5 19 11.5 19.5 12 20.5C12.5 21.5 13.5 22 14.5 21.5C15.5 21 15.5 19.5 16 19C16.5 18.5 17 18.5 18 19C19 19.5 21 18.5 21.5 16C21.5 16 20 14.5 19.5 11C19.0326 7.72821 16.5 2.5 12 2.5Z" stroke="currentColor" stroke-width="2" stroke-linecap="round" stroke-linejoin="round"/>
  <!-- The Eyes -->
  <path d="M9 9.5V9.51" stroke="currentColor" stroke-width="2.5" stroke-linecap="round" stroke-linejoin="round"/>
  <path d="M15 9.5V9.51" stroke="currentColor" stroke-width="2.5" stroke-linecap="round" stroke-linejoin="round"/>
</svg>