<svg width="200" height="200" viewBox="0 0 200 200" fill="none" xmlns="http://www.w3.org/2000/svg">
<path d="M100 20C55.8172 20 20 55.8172 20 100C20 144.183 55.8172 180 100 180C144.183 180 180 144.183 180 100C180 55.8172 144.183 20 100 20ZM100 160C66.8629 160 40 133.137 40 100C40 66.8629 66.8629 40 100 40C133.137 40 160 66.8629 160 100C160 133.137 133.137 160 100 160Z" fill="white"/>
<path d="M100 60C77.9086 60 60 77.9086 60 100C60 122.091 77.9086 140 100 140C122.091 140 140 122.091 140 100C140 77.9086 122.091 60 100 60ZM100 120C88.9543 120 80 111.046 80 100C80 88.9543 88.9543 80 100 80C111.046 80 120 88.9543 120 100C120 111.046 111.046 120 100 120Z" fill="white" fill-opacity="0.5"/>
<path d="M100 85C91.7157 85 85 91.7157 85 100C85 108.284 91.7157 115 100 115C108.284 115 115 108.284 115 100C115 91.7157 108.284 85 100 85Z" fill="white"/>
</svg>
